<svg id="Main_Menu" xmlns="http://www.w3.org/2000/svg" width="360" height="55" viewBox="0 0 360 55">
  <path id="Path_311" data-name="Path 311" d="M0,5H360V0H0Z" fill="#fed307"/>
  <g id="Group_128" data-name="Group 128" transform="translate(58 -585)">
    <path id="Path_309" data-name="Path 309" d="M0,0H100V50H0Z" transform="translate(0 590)" fill="#6ab045"/>
    <text id="Cos-pha" transform="translate(17 622)" fill="#fff" font-size="16" font-family="Roboto-Regular, Roboto"><tspan x="0" y="0">COS-PHA</tspan></text>
  </g>
  <g id="Group_129" data-name="Group 129" transform="translate(159 -585)">
    <path id="Path_309-2" data-name="Path 309" d="M0,0H100V50H0Z" transform="translate(0 590)" fill="#6ab045"/>
    <text id="Xi_Nhan" data-name="Xi Nhan" transform="translate(17 622)" fill="#fff" font-size="16" font-family="Roboto-Regular, Roboto"><tspan x="0" y="0">XI NHAN</tspan></text>
  </g>
  <g id="Group_130" data-name="Group 130" transform="translate(260 -585)">
    <path id="Path_309-3" data-name="Path 309" d="M0,0H100V50H0Z" transform="translate(0 590)" fill="#6ab045"/>
    <text id="Hiệu_Ứng" data-name="Hiệu Ứng" transform="translate(17 622)" fill="#fff" font-size="16" font-family="Roboto-Regular, Roboto"><tspan x="0" y="0">HIỆU ỨNG</tspan></text>
  </g>
  <path id="Path_312" data-name="Path 312" d="M0,0H57V50H0Z" transform="translate(0 5)" fill="#6ab045"/>
  <g id="ic_home" transform="translate(3 4)">
    <g id="Path_313" data-name="Path 313" fill="#fff" opacity="0">
      <path d="M 25.5 50.5 C 22.12479972839355 50.5 18.850830078125 49.83906936645508 15.76902961730957 48.53557968139648 C 12.79209995269775 47.27645111083984 10.11845016479492 45.47378921508789 7.822329998016357 43.17766952514648 C 5.526209831237793 40.88154983520508 3.723550081253052 38.20790100097656 2.464420080184937 35.2309684753418 C 1.160930037498474 32.149169921875 0.5 28.87520027160645 0.5 25.5 C 0.5 22.12479972839355 1.160930037498474 18.850830078125 2.464420080184937 15.76902961730957 C 3.723550081253052 12.79209995269775 5.526209831237793 10.11845016479492 7.822329998016357 7.822329998016357 C 10.11845016479492 5.526209831237793 12.79209995269775 3.723550081253052 15.76902961730957 2.464420080184937 C 18.850830078125 1.160930037498474 22.12479972839355 0.5 25.5 0.5 C 28.87520027160645 0.5 32.149169921875 1.160930037498474 35.2309684753418 2.464420080184937 C 38.20790100097656 3.723550081253052 40.88154983520508 5.526209831237793 43.17766952514648 7.822329998016357 C 45.47378921508789 10.11845016479492 47.27645111083984 12.79209995269775 48.53557968139648 15.76902961730957 C 49.83906936645508 18.850830078125 50.5 22.12479972839355 50.5 25.5 C 50.5 28.87520027160645 49.83906936645508 32.149169921875 48.53557968139648 35.2309684753418 C 47.27645111083984 38.20790100097656 45.47378921508789 40.88154983520508 43.17766952514648 43.17766952514648 C 40.88154983520508 45.47378921508789 38.20790100097656 47.27645111083984 35.2309684753418 48.53557968139648 C 32.149169921875 49.83906936645508 28.87520027160645 50.5 25.5 50.5 Z" stroke="none"/>
      <path d="M 25.5 1 C 22.19207954406738 1 18.98363876342773 1.647640228271484 15.96379852294922 2.924919128417969 C 13.04647827148438 4.158840179443359 10.42623901367188 5.925521850585938 8.175880432128906 8.175880432128906 C 5.925521850585938 10.42623901367188 4.158840179443359 13.04647827148438 2.924919128417969 15.96379852294922 C 1.647640228271484 18.98363876342773 1 22.19207954406738 1 25.5 C 1 28.80792045593262 1.647640228271484 32.016357421875 2.924919128417969 35.03620147705078 C 4.158840179443359 37.95352172851563 5.925521850585938 40.57376098632813 8.175880432128906 42.82411956787109 C 10.42623901367188 45.07447814941406 13.04647827148438 46.84115982055664 15.96379852294922 48.07508087158203 C 18.98363876342773 49.35235977172852 22.19207954406738 50 25.5 50 C 28.80792045593262 50 32.016357421875 49.35235977172852 35.03620147705078 48.07508087158203 C 37.95352172851563 46.84115982055664 40.57376098632813 45.07447814941406 42.82411956787109 42.82411956787109 C 45.07447814941406 40.57376098632813 46.84115982055664 37.95352172851563 48.07508087158203 35.03620147705078 C 49.35235977172852 32.016357421875 50 28.80792045593262 50 25.5 C 50 22.19207954406738 49.35235977172852 18.98363876342773 48.07508087158203 15.96379852294922 C 46.84115982055664 13.04647827148438 45.07447814941406 10.42623901367188 42.82411956787109 8.175880432128906 C 40.57376098632813 5.925521850585938 37.95352172851563 4.158840179443359 35.03620147705078 2.924919128417969 C 32.016357421875 1.647640228271484 28.80792045593262 1 25.5 1 M 25.5 0 C 39.58325958251953 0 51 11.41674041748047 51 25.5 C 51 39.58325958251953 39.58325958251953 51 25.5 51 C 11.41674041748047 51 0 39.58325958251953 0 25.5 C 0 11.41674041748047 11.41674041748047 0 25.5 0 Z" stroke="none" fill="#707070"/>
    </g>
    <path id="Icon_x5F_home_1_" d="M280.16,218.563l-12.01-7.243-12.01,7.243v17.195h24.02Z" transform="translate(-242.29 -198.264)" fill="none" stroke="#fed307" stroke-miterlimit="10" stroke-width="1.62"/>
  </g>
</svg>
